<?xml version="1.0" encoding="utf-8"?>
<!-- Svg Vector Icons : http://www.sfont.cn -->
<!DOCTYPE svg PUBLIC "-//W3C//DTD SVG 1.1//EN" "http://www.w3.org/Graphics/SVG/1.1/DTD/svg11.dtd">
<svg version="1.1" xmlns="http://www.w3.org/2000/svg" xmlns:xlink="http://www.w3.org/1999/xlink" x="0px" y="0px" viewBox="0 0 1000 1000" enable-background="new 0 0 1000 1000" xml:space="preserve">
<metadata> Svg Vector Icons : http://www.sfont.cn </metadata>
<g><path d="M663.3,511.5h70v115.5h-70V511.5L663.3,511.5z M780,511.5h70v115.5h-70V511.5L780,511.5z M663.3,673.3h70v115.5h-70V673.3L663.3,673.3z M780,673.3h70v115.5h-70V673.3L780,673.3z M150,534.6h70v115.5h-70V534.6L150,534.6z M150,372.9h70v115.5h-70V372.9L150,372.9z M150,211.2h70v115.5h-70V211.2L150,211.2z M406.7,881.2h-210V719.5h210V881.2L406.7,881.2z M593.3,881.2h-70V125.8c0-43.7-25.4-76.2-72.8-76.2H137.6c-34.3,0-57.6,34.2-57.6,76.2v755.4H45c-19.4,0-35,15.5-35,34.7c0,19.2,15.6,34.7,35,34.7h910c19.4,0,35-15.5,35-34.7c0-19.2-15.6-34.7-35-34.7h-35V493.1c0-40.9-33.4-73.9-74.7-73.9h-182c-25.2,0-70.5,19.9-70.5,69.3L593.3,881.2L593.3,881.2z M383.3,534.6h70v115.5h-70V534.6L383.3,534.6z M266.7,372.9h70v115.5h-70V372.9L266.7,372.9z M383.3,372.9h70v115.5h-70V372.9L383.3,372.9z M383.3,211.2h70v115.5h-70V211.2L383.3,211.2z M266.7,211.2h70v115.5h-70V211.2L266.7,211.2z M266.7,534.6h70v115.5h-70V534.6L266.7,534.6z"/></g>
</svg>