<?xml version="1.0" encoding="utf-8"?>
<!-- Svg Vector Icons : http://www.sfont.cn -->
<!DOCTYPE svg PUBLIC "-//W3C//DTD SVG 1.1//EN" "http://www.w3.org/Graphics/SVG/1.1/DTD/svg11.dtd">
<svg version="1.1" xmlns="http://www.w3.org/2000/svg" xmlns:xlink="http://www.w3.org/1999/xlink" x="0px" y="0px" viewBox="0 0 1000 1000" enable-background="new 0 0 1000 1000" xml:space="preserve">
<metadata> Svg Vector Icons : http://www.sfont.cn </metadata>
<g><g><path d="M967.2,933.2c-152.5-23.1-308.2-23-462.3-24.8c-107.9-1.2-221.7-8.7-331.1,2.7c-7.2-0.2-14.5-0.3-21.7-0.6c-23.5-0.7-45.7,0.4-67.8,4.6c20.4-291.1,20.3-591.6-11-881.2C69-5.4,10.8-7.5,10.4,33.9c-3.6,306.8,21.6,610.3,1.8,917.5c-1.4,21.4,13.6,32.4,30.1,33.3c1.9,0.6,3.7,1.4,6,1.6c37.8,2.5,85.4,7.1,126.7,0.3c97.9,4.5,198-3.7,295-2.9c162.8,1.4,326.2,16.3,488.8,11.8C992.7,994.5,1004,938.7,967.2,933.2z"/><path d="M866.1,175.3c-2.6-20.6-22.4-36.6-42.8-24.6c-37.5,22-73.6,44.8-109.5,69.4c-32.5,22.3-2.5,75.2,31.2,53.4c3.6-2.1,6.9-4.6,10.4-6.7c-61.1,113-124.3,224.9-185.2,338.1c-29.6-68.8-57.6-138.2-86.4-207.3c-8.2-19.6-33.3-20.7-41.2,0c-44.9,118.1-89.4,236.2-133.3,354.7c-22.5-38-45.6-75.5-70.4-112.2c-8.8-13-26.5-10-31.8,4.2c-24.7,65-55,126.7-82.5,190.5c-4.8,11.2,9.8,20.5,16.7,9.8c17.1-26.4,57.1-133.2,82.6-144.1c18-7.7,61,89.8,71.8,109.6c9.2,17,31.6,10.5,37.6-4.9c44.5-114.8,87.8-230,131.1-345.2c28.4,65.8,57.1,131.5,83.6,198c6.5,16.3,27.6,21,37.8,4.9c83.5-131.4,157.2-268.1,230.4-405.3c1.5,25.2,2.4,50.3,2.6,76.2c0.3,37.8,59.4,37.8,58.7,0C876.7,279.8,872.9,228.7,866.1,175.3z"/></g><g></g><g></g><g></g><g></g><g></g><g></g><g></g><g></g><g></g><g></g><g></g><g></g><g></g><g></g><g></g></g>
</svg>