<?xml version="1.0" encoding="utf-8"?>
<!-- Svg Vector Icons : http://www.sfont.cn -->
<!DOCTYPE svg PUBLIC "-//W3C//DTD SVG 1.1//EN" "http://www.w3.org/Graphics/SVG/1.1/DTD/svg11.dtd">
<svg version="1.1" xmlns="http://www.w3.org/2000/svg" xmlns:xlink="http://www.w3.org/1999/xlink" x="0px" y="0px" viewBox="0 0 1000 1000" enable-background="new 0 0 1000 1000" xml:space="preserve">
<metadata> Svg Vector Icons : http://www.sfont.cn </metadata>
<g><path d="M143.3,530.2v373l265.6-0.3l-0.7-174.5c0,0-2.4-33.2,28.7-33.2h102.7c38.1,0,35.6,33.2,35.6,33.2L575,902.2h264.6v-372L494,229.3L143.3,530.2z M475.3,530.2h-66.4v-67.4h66.4V530.2z M475.3,430.6h-66.4v-66.4h66.4V430.6z M508.5,364.2H575v66.4h-66.4V364.2z M508.5,462.7H575v67.4h-66.4V462.7z M498.2,96.8L10,529.2h98L495,194l379.8,335.2H990L498.2,96.8z M839.5,131.7h-98.6V248l98.6,80.9V131.7z"/></g>
</svg>