<?xml version="1.0" encoding="utf-8"?>
<!-- Svg Vector Icons : http://www.sfont.cn -->
<!DOCTYPE svg PUBLIC "-//W3C//DTD SVG 1.1//EN" "http://www.w3.org/Graphics/SVG/1.1/DTD/svg11.dtd">
<svg version="1.1" xmlns="http://www.w3.org/2000/svg" xmlns:xlink="http://www.w3.org/1999/xlink" x="0px" y="0px" viewBox="0 0 1000 1000" enable-background="new 0 0 1000 1000" xml:space="preserve">
<metadata> Svg Vector Icons : http://www.sfont.cn </metadata>
<g><path d="M456.8,67.6H24.4c-8,0-14.4,6.5-14.4,14.4v850.3h57.6V802.7c0-8,6.5-14.4,14.4-14.4h57.6c8,0,14.4,6.5,14.4,14.4v129.7h317.1V82.1C471.2,74.1,464.7,67.6,456.8,67.6z M154.1,709c0,4-3.2,7.2-7.2,7.2H74.8c-4,0-7.2-3.2-7.2-7.2v-72.1c0-4,3.2-7.2,7.2-7.2h72.1c4,0,7.2,3.2,7.2,7.2V709z M154.1,550.4c0,4-3.2,7.2-7.2,7.2H74.8c-4,0-7.2-3.2-7.2-7.2v-72.1c0-4,3.2-7.2,7.2-7.2h72.1c4,0,7.2,3.2,7.2,7.2V550.4z M154.1,391.9c0,4-3.2,7.2-7.2,7.2H74.8c-4,0-7.2-3.2-7.2-7.2v-72.1c0-4,3.2-7.2,7.2-7.2h72.1c4,0,7.2,3.2,7.2,7.2V391.9L154.1,391.9z M154.1,233.4c0,4-3.2,7.2-7.2,7.2H74.8c-4,0-7.2-3.2-7.2-7.2v-72.1c0-4,3.2-7.2,7.2-7.2h72.1c4,0,7.2,3.2,7.2,7.2V233.4z M283.8,709c0,4-3.2,7.2-7.2,7.2h-72.1c-4,0-7.2-3.2-7.2-7.2v-72.1c0-4,3.2-7.2,7.2-7.2h72.1c4,0,7.2,3.2,7.2,7.2V709z M283.8,550.4c0,4-3.2,7.2-7.2,7.2h-72.1c-4,0-7.2-3.2-7.2-7.2v-72.1c0-4,3.2-7.2,7.2-7.2h72.1c4,0,7.2,3.2,7.2,7.2V550.4z M283.8,391.9c0,4-3.2,7.2-7.2,7.2h-72.1c-4,0-7.2-3.2-7.2-7.2v-72.1c0-4,3.2-7.2,7.2-7.2h72.1c4,0,7.2,3.2,7.2,7.2V391.9L283.8,391.9z M283.8,233.4c0,4-3.2,7.2-7.2,7.2h-72.1c-4,0-7.2-3.2-7.2-7.2v-72.1c0-4,3.2-7.2,7.2-7.2h72.1c4,0,7.2,3.2,7.2,7.2V233.4z M413.5,709c0,4-3.2,7.2-7.2,7.2h-72.1c-4,0-7.2-3.2-7.2-7.2v-72.1c0-4,3.2-7.2,7.2-7.2h72.1c4,0,7.2,3.2,7.2,7.2V709z M413.5,550.4c0,4-3.2,7.2-7.2,7.2h-72.1c-4,0-7.2-3.2-7.2-7.2v-72.1c0-4,3.2-7.2,7.2-7.2h72.1c4,0,7.2,3.2,7.2,7.2V550.4z M413.5,391.9c0,4-3.2,7.2-7.2,7.2h-72.1c-4,0-7.2-3.2-7.2-7.2v-72.1c0-4,3.2-7.2,7.2-7.2h72.1c4,0,7.2,3.2,7.2,7.2V391.9L413.5,391.9z M413.5,233.4c0,4-3.2,7.2-7.2,7.2h-72.1c-4,0-7.2-3.2-7.2-7.2v-72.1c0-4,3.2-7.2,7.2-7.2h72.1c4,0,7.2,3.2,7.2,7.2V233.4z M979.5,482.6L547.2,361c-9.2-2.6-18.3,4.3-18.3,13.9v557.4h57.6V817c0-8,6.5-14.4,14.4-14.4h57.6c8,0,14.4,6.5,14.4,14.4v115.3H990V496.5C990,490,985.7,484.4,979.5,482.6L979.5,482.6z M672.9,737.8c0,4-3.2,7.2-7.2,7.2h-72.1c-4,0-7.2-3.2-7.2-7.2v-72.1c0-4,3.2-7.2,7.2-7.2h72.1c4,0,7.2,3.2,7.2,7.2V737.8z M672.9,579.3c0,4-3.2,7.2-7.2,7.2h-72.1c-4,0-7.2-3.2-7.2-7.2v-72.1c0-4,3.2-7.2,7.2-7.2h72.1c4,0,7.2,3.2,7.2,7.2V579.3z M802.7,737.8c0,4-3.2,7.2-7.2,7.2h-72.1c-4,0-7.2-3.2-7.2-7.2v-72.1c0-4,3.2-7.2,7.2-7.2h72.1c4,0,7.2,3.2,7.2,7.2V737.8z M802.7,579.3c0,4-3.2,7.2-7.2,7.2h-72.1c-4,0-7.2-3.2-7.2-7.2v-72.1c0-4,3.2-7.2,7.2-7.2h72.1c4,0,7.2,3.2,7.2,7.2V579.3z M932.4,737.8c0,4-3.2,7.2-7.2,7.2h-72.1c-4,0-7.2-3.2-7.2-7.2v-72.1c0-4,3.2-7.2,7.2-7.2h72.1c4,0,7.2,3.2,7.2,7.2V737.8z M932.4,579.3c0,4-3.2,7.2-7.2,7.2h-72.1c-4,0-7.2-3.2-7.2-7.2v-72.1c0-4,3.2-7.2,7.2-7.2h72.1c4,0,7.2,3.2,7.2,7.2V579.3z"/></g>
</svg>