<?xml version="1.0" encoding="utf-8"?>
<!-- Svg Vector Icons : http://www.sfont.cn -->
<!DOCTYPE svg PUBLIC "-//W3C//DTD SVG 1.1//EN" "http://www.w3.org/Graphics/SVG/1.1/DTD/svg11.dtd">
<svg version="1.1" xmlns="http://www.w3.org/2000/svg" xmlns:xlink="http://www.w3.org/1999/xlink" x="0px" y="0px" viewBox="0 0 1000 1000" enable-background="new 0 0 1000 1000" xml:space="preserve">
<metadata> Svg Vector Icons : http://www.sfont.cn </metadata>
<g><path d="M234.3,579.7h531.5c12.9,0,23.3-10.4,23.3-23.3c0-12.9-10.4-23.3-23.3-23.3H234.3c-12.9,0-23.3,10.4-23.3,23.3C210.9,569.3,221.4,579.7,234.3,579.7z"/><path d="M583.5,680.2H234.3c-12.9,0-23.3,10.4-23.3,23.3c0,12.9,10.4,23.3,23.3,23.3h349.3c12.9,0,23.3-10.4,23.3-23.3C606.9,690.7,596.4,680.2,583.5,680.2z"/><path d="M234.3,432.5h531.5c12.9,0,23.3-10.4,23.3-23.3c0-12.9-10.4-23.3-23.3-23.3H234.3c-12.9,0-23.3,10.4-23.3,23.3C210.9,422.1,221.4,432.5,234.3,432.5z"/><path d="M282.2,260c26.5,0,48-21.5,48-48c0-26.5-21.5-48-48-48c-26.5,0-48,21.5-48,48C234.3,238.5,255.7,260,282.2,260z"/><path d="M500,260c26.5,0,48-21.5,48-48c0-26.5-21.5-48-48-48c-26.5,0-48,21.5-48,48C452.1,238.5,473.5,260,500,260z"/><path d="M717.8,260c26.5,0,48-21.5,48-48c0-26.5-21.5-48-48-48c-26.5,0-48,21.5-48,48C669.9,238.5,691.3,260,717.8,260z"/><path d="M894.5,821.4C894.5,821.4,894.5,821.4,894.5,821.4c0.5-0.6,0.9-1.2,1.3-1.8c0.1-0.2,0.2-0.3,0.3-0.5c0.3-0.5,0.6-1,0.9-1.5c0.1-0.2,0.2-0.5,0.3-0.7c0.2-0.5,0.4-0.9,0.6-1.4c0.1-0.3,0.2-0.5,0.3-0.8c0.2-0.5,0.3-0.9,0.5-1.4c0.1-0.3,0.1-0.6,0.2-0.9c0.1-0.4,0.2-0.9,0.3-1.3c0.1-0.4,0.1-0.8,0.2-1.1c0.1-0.4,0.1-0.7,0.2-1.1c0.1-0.8,0.1-1.5,0.1-2.3V33.3c0-12.9-10.4-23.3-23.3-23.3H123.6c-12.9,0-23.3,10.4-23.3,23.3v933.3c0,12.9,10.4,23.3,23.3,23.3h592.9c0.8,0,1.5,0,2.3-0.1c0.4,0,0.7-0.1,1.1-0.2c0.4-0.1,0.8-0.1,1.1-0.2c0.5-0.1,0.9-0.2,1.3-0.3c0.3-0.1,0.6-0.1,0.9-0.2c0.5-0.1,0.9-0.3,1.4-0.5c0.3-0.1,0.5-0.2,0.8-0.3c0.5-0.2,0.9-0.4,1.4-0.6c0.2-0.1,0.5-0.2,0.7-0.3c0.5-0.3,1-0.6,1.5-0.9c0.2-0.1,0.3-0.2,0.5-0.3c0.6-0.4,1.2-0.9,1.8-1.3c0,0,0,0,0,0c0.7-0.5,1.3-1.1,1.9-1.7l159.8-159.8C893.4,822.7,894,822,894.5,821.4z M146.9,56.7h706.2v726.7H716.4c-12.9,0-23.3,10.4-23.3,23.3v136.7H146.9V56.7z M820.1,830l-80.3,80.3V830H820.1z"/></g>
</svg>