<?xml version="1.0" encoding="utf-8"?>
<!-- Svg Vector Icons : http://www.sfont.cn -->
<!DOCTYPE svg PUBLIC "-//W3C//DTD SVG 1.1//EN" "http://www.w3.org/Graphics/SVG/1.1/DTD/svg11.dtd">
<svg version="1.1" xmlns="http://www.w3.org/2000/svg" xmlns:xlink="http://www.w3.org/1999/xlink" x="0px" y="0px" viewBox="0 0 1000 1000" enable-background="new 0 0 1000 1000" xml:space="preserve">
<metadata> Svg Vector Icons : http://www.sfont.cn </metadata>
<g><path d="M500,108c116,0,210,87.7,210,196h105c0-162.4-141-294-315-294c-174,0-315,131.6-315,294h105C290,195.7,384,108,500,108L500,108L500,108z M850,369.3H150c-38.7,0-70,29.3-70,65.3v490c0,36.1,31.3,65.4,70,65.4h700c38.7,0,70-29.3,70-65.4v-490C920,398.6,888.7,369.3,850,369.3L850,369.3L850,369.3z M861.5,926.2c0,7.4-6.1,13.5-13.5,13.5H155.4c-7.4,0-13.5-6.1-13.5-13.5V443.1c0-7.4,6.1-13.5,13.5-13.5h692.6c7.4,0,13.5,6.1,13.5,13.5V926.2z M500,532.7L500,532.7c-58,0-105,43.9-105,98c0,36.2,21.3,67.4,52.5,84.4v93.2c0,28.2,23.5,51,52.5,51c29,0,52.5-22.9,52.5-51v-93.2c31.2-17,52.5-48.2,52.5-84.4C605,576.5,558,532.7,500,532.7L500,532.7L500,532.7z"/></g>
</svg>