<?xml version="1.0" encoding="utf-8"?>
<!-- Svg Vector Icons : http://www.sfont.cn -->
<!DOCTYPE svg PUBLIC "-//W3C//DTD SVG 1.1//EN" "http://www.w3.org/Graphics/SVG/1.1/DTD/svg11.dtd">
<svg version="1.1" xmlns="http://www.w3.org/2000/svg" xmlns:xlink="http://www.w3.org/1999/xlink" x="0px" y="0px" viewBox="0 0 1000 1000" enable-background="new 0 0 1000 1000" xml:space="preserve">
<metadata> Svg Vector Icons : http://www.sfont.cn </metadata>
<g><path d="M686.3,82.9L686.3,82.9c8.2,0,23.3,1.3,32.9,10.3c2.2,2,8.9,8.2,8.9,23.6c0,17.2-9.3,44.3-35.6,68.8c-32.1,29.9-85,52.5-123.1,52.5c-11,0-16.2-2-17.1-2c0,0,0,0,0,0c-7.1-14.4,8.3-76.7,52.7-118C628.6,96.1,659,82.9,686.3,82.9 M686.3,10c-44,0-92.5,18.8-131.1,54.7c-66.4,61.9-105,175.9-53.5,224c16.6,15.5,40.6,22.2,67.6,22.2c57,0,127.8-30,172.9-72c66.4-61.9,78.4-151,26.7-199.1C747.4,19.7,718,10,686.3,10 M313.7,82.9c27.3,0,57.7,13.2,81.4,35.2c44.7,41.7,60,104.6,53.8,117c0,0-4.8,3-18.2,3c-38.1,0-91-22.6-123.1-52.5c-26.2-24.5-35.6-51.6-35.6-68.8c0-15.3,6.7-21.5,8.9-23.5C290.4,84.3,305.5,82.9,313.7,82.9 M313.7,10c-31.7,0-61,9.7-82.7,29.9C179.4,88,191.4,177.1,257.8,239c45,42,115.8,72,172.8,72c27.1,0,51-6.8,67.6-22.2c51.6-48.1,12.9-162.2-53.5-224C406.1,28.8,357.6,10,313.7,10 M928.8,596.9V346.8c0-39.3-32.2-71.5-71.5-71.5H535.7v321.6H928.8z M535.7,668.4V990h321.6c39.3,0,71.5-32.2,71.5-71.5V668.4H535.7z M464.3,596.9V275.3H142.6c-39.3,0-71.5,32.2-71.5,71.5v250.2H464.3z M71.2,668.4v250.2c0,39.3,32.2,71.5,71.5,71.5h321.6V668.4H71.2z"/></g>
</svg>