<?xml version="1.0" encoding="utf-8"?>
<!-- Svg Vector Icons : http://www.sfont.cn -->
<!DOCTYPE svg PUBLIC "-//W3C//DTD SVG 1.1//EN" "http://www.w3.org/Graphics/SVG/1.1/DTD/svg11.dtd">
<svg version="1.1" xmlns="http://www.w3.org/2000/svg" xmlns:xlink="http://www.w3.org/1999/xlink" x="0px" y="0px" viewBox="0 0 1000 1000" enable-background="new 0 0 1000 1000" xml:space="preserve">
<metadata> Svg Vector Icons : http://www.sfont.cn </metadata>
<g><path d="M902.9,162.4H97.1c-48,0-87.1,39.1-87.1,87.1v500.9c0,48,39.1,87.1,87.1,87.1h805.8c48,0,87.1-39.1,87.1-87.1V249.6C990,201.5,950.9,162.4,902.9,162.4z M915.3,207.8c-70.8,52.3-320.7,236.9-356.6,264.7c-29.8,23-50,22.3-86.3-3C440.1,447.1,191,264,112.1,206h790.8C907.2,206,911.4,206.6,915.3,207.8z M946.4,750.4c0,24-19.5,43.6-43.6,43.6H97.1c-24,0-43.6-19.5-43.6-43.6V249.6c0-11.1,4.1-21.2,11-28.8l-2.1,2.8c14.1,10.4,346.4,254.9,385.1,281.8c20.9,14.5,44.6,27.3,71.7,27.3c20.1,0,42-7.1,66.1-25.6c35.8-27.7,296.2-220.1,360-267.2c0.7,3.1,1.1,6.4,1.1,9.7V750.4z"/></g>
</svg>