<?xml version="1.0" encoding="utf-8"?>
<!-- Svg Vector Icons : http://www.sfont.cn -->
<!DOCTYPE svg PUBLIC "-//W3C//DTD SVG 1.1//EN" "http://www.w3.org/Graphics/SVG/1.1/DTD/svg11.dtd">
<svg version="1.1" xmlns="http://www.w3.org/2000/svg" xmlns:xlink="http://www.w3.org/1999/xlink" x="0px" y="0px" viewBox="0 0 1000 1000" enable-background="new 0 0 1000 1000" xml:space="preserve">
<metadata> Svg Vector Icons : http://www.sfont.cn </metadata>
<g><path d="M500,9.9C229.4,9.9,10,229.3,10,500c0,270.7,219.4,490.1,490,490.1c270.6,0,490-219.4,490-490.1C990,229.3,770.6,9.9,500,9.9z M659.8,671.9l-14.3,14.2c-11.9,11.9-31.9,12.4-44.5,1.2L436.9,546.2c-12.6-11.2-22.1-34.2-21.2-51l17.1-270.9c0.8-16.8,15.3-30.6,32.2-30.6h20.2c16.9,0,31.3,13.8,32.1,30.6l14,221.9c0.8,16.9,10.7,40.9,21.9,53.5l107.9,127.8C672.2,640,671.7,660,659.8,671.9z"/></g>
</svg>